HIERARCHY
ROOT Hips
{
	OFFSET 0.000000 0.000000 0.000000
	CHANNELS 6 Xposition Yposition Zposition Zrotation Yrotation Xrotation 
	JOINT LHipJoint
	{
		OFFSET 0.000000 0.000000 0.000000
		CHANNELS 3 Zrotation Yrotation Xrotation
		JOINT LeftUpLeg
		{
			OFFSET 1.363060 -1.794630 0.839290
			CHANNELS 3 Zrotation Yrotation Xrotation
			JOINT LeftLeg
			{
				OFFSET 2.448110 -6.726130 0.000000
				CHANNELS 3 Zrotation Yrotation Xrotation
				JOINT LeftFoot
				{
					OFFSET 2.562200 -7.039590 0.000000
					CHANNELS 3 Zrotation Yrotation Xrotation
					JOINT LeftToeBase
					{
						OFFSET 0.157640 -0.433110 2.322550
						CHANNELS 3 Zrotation Yrotation Xrotation
						End Site
						{
							OFFSET 0.000000 0.000000 0.000000
						}
					}
				}
			}
		}
	}
	JOINT RHipJoint
	{
		OFFSET 0.000000 0.000000 0.000000
		CHANNELS 3 Zrotation Yrotation Xrotation
		JOINT RightUpLeg
		{
			OFFSET -1.305520 -1.794630 0.839290
			CHANNELS 3 Zrotation Yrotation Xrotation
			JOINT RightLeg
			{
				OFFSET -2.542530 -6.985550 0.000000
				CHANNELS 3 Zrotation Yrotation Xrotation
				JOINT RightFoot
				{
					OFFSET -2.568260 -7.056230 0.000000
					CHANNELS 3 Zrotation Yrotation Xrotation
					JOINT RightToeBase
					{
						OFFSET -0.164730 -0.452590 2.363150
						CHANNELS 3 Zrotation Yrotation Xrotation
						End Site
						{
							OFFSET 0.000000 0.000000 0.000000
						}
					}
				}
			}
		}
	}
	JOINT LowerBack
	{
		OFFSET 0.000000 0.000000 0.000000
		CHANNELS 3 Zrotation Yrotation Xrotation
		JOINT Spine
		{
			OFFSET 0.028270 2.035590 -0.193380
			CHANNELS 3 Zrotation Yrotation Xrotation
			JOINT Spine1
			{
				OFFSET 0.056720 2.048850 -0.042750
				CHANNELS 3 Zrotation Yrotation Xrotation
				JOINT Neck
				{
					OFFSET 0.000000 0.000000 0.000000
					CHANNELS 3 Zrotation Yrotation Xrotation
					JOINT Neck1
					{
						OFFSET -0.054170 1.746240 0.172020
						CHANNELS 3 Zrotation Yrotation Xrotation
						JOINT Head
						{
							OFFSET 0.104070 1.761360 -0.123970
							CHANNELS 3 Zrotation Yrotation Xrotation
							End Site
							{
								OFFSET 0.000000 0.000000 0.000000
							}
						}
					}
				}
				JOINT LeftShoulder
				{
					OFFSET 0.000000 0.000000 0.000000
					CHANNELS 3 Zrotation Yrotation Xrotation
					JOINT LeftArm
					{
						OFFSET 3.362410 1.200890 -0.311210
						CHANNELS 3 Zrotation Yrotation Xrotation
						JOINT LeftForeArm
						{
							OFFSET 4.983000 -0.000000 -0.000000
							CHANNELS 3 Zrotation Yrotation Xrotation
							JOINT LeftHand
							{
								OFFSET 3.483560 -0.000000 -0.000000
								CHANNELS 3 Zrotation Yrotation Xrotation
								JOINT LeftFingerBase
								{
									OFFSET 0.000000 0.000000 0.000000
									CHANNELS 3 Zrotation Yrotation Xrotation
									JOINT LeftHandIndex1
									{
										OFFSET 0.715260 -0.000000 -0.000000
										CHANNELS 3 Zrotation Yrotation Xrotation
										End Site
										{
											OFFSET 0.000000 0.000000 0.000000
										}
									}
								}
								JOINT LThumb
								{
									OFFSET 0.000000 0.000000 0.000000
									CHANNELS 3 Zrotation Yrotation Xrotation
									End Site
									{
										OFFSET 0.000000 0.000000 0.000000
									}
								}
							}
						}
					}
				}
				JOINT RightShoulder
				{
					OFFSET 0.000000 0.000000 0.000000
					CHANNELS 3 Zrotation Yrotation Xrotation
					JOINT RightArm
					{
						OFFSET -3.136600 1.374050 -0.404650
						CHANNELS 3 Zrotation Yrotation Xrotation
						JOINT RightForeArm
						{
							OFFSET -5.241900 -0.000000 -0.000000
							CHANNELS 3 Zrotation Yrotation Xrotation
							JOINT RightHand
							{
								OFFSET -3.444170 -0.000000 -0.000000
								CHANNELS 3 Zrotation Yrotation Xrotation
								JOINT RightFingerBase
								{
									OFFSET 0.000000 0.000000 0.000000
									CHANNELS 3 Zrotation Yrotation Xrotation
									JOINT RightHandIndex1
									{
										OFFSET -0.622530 -0.000000 -0.000000
										CHANNELS 3 Zrotation Yrotation Xrotation
										End Site
										{
											OFFSET 0.000000 0.000000 0.000000
										}
									}
								}
								JOINT RThumb
								{
									OFFSET 0.000000 0.000000 0.000000
									CHANNELS 3 Zrotation Yrotation Xrotation
									End Site
									{
										OFFSET 0.000000 0.000000 0.000000
									}
								}
							}
						}
					}
				}
			}
		}
	}
}
MOTION
Frames: 12
Frame Time: 0.008333
9.930664 22.173113 1.701167 49.259940 -80.443693 -9.238400 -11.115101 -0.529039 2.358624 -17.109596 -5.122079 -73.531914 6.276565 5.993398 109.860224 1.459671 4.560155 8.414568 0.845000 0.000000 -59.812100 12.584000 1.927881 0.496974 0.915496 -13.093130 -70.293656 -6.528909 -8.081338 107.603024 -0.563727 -0.275363 -4.504410 0.034700 -0.000000 -74.531700 -1.571350 -1.744537 -3.187032 -0.690556 -1.702939 -2.806073 -3.662637 -1.778951 2.641455 5.624479 -8.815478 -5.002498 -2.082035 -0.177919 0.531565 0.000000 0.000000 0.000000 5.306451 3.600276 1.243038 -39.168506 -21.671320 -3.119004 -0.666996 -70.112605 -0.054569 8.555353 -0.115635 -0.037166 -0.204609 0.386103 0.000000 0.000000 0.000000 0.000000 0.000000 0.000000 0.000000 7.586869 -7.370193 2.848961 29.970241 31.352859 -5.827006 1.865128 39.553847 -0.011935 -5.708943 4.531577 -0.245590 0.165648 -0.262638 0.000000 0.000000 0.000000 0.000000 0.000000 0.000000 0.000000 
9.817964 22.222145 1.685475 49.647606 -80.169485 -8.092910 -10.895559 -1.066614 2.461537 -18.100439 -6.810493 -79.035897 7.479328 6.472486 115.279771 1.408860 4.782419 6.138360 0.813700 -0.000001 -58.116700 12.478710 2.548217 0.688834 1.156797 -13.152611 -76.218227 -7.867125 -8.701069 113.198643 -0.467735 0.058886 -6.508280 0.023500 0.000000 -73.316400 -1.585912 -1.804181 -3.343155 -0.661167 -1.762271 -2.816888 -3.483027 -1.845799 2.784173 5.478406 -9.106265 -4.923989 -1.934746 -0.168335 0.541694 0.000000 0.000000 0.000000 5.443127 3.550038 1.381132 -37.276570 -21.696889 -3.387279 -0.709232 -69.243539 -0.047716 7.518123 0.392678 0.002553 -0.194187 0.372074 0.000000 0.000000 0.000000 0.000000 0.000000 0.000000 0.000000 7.058473 -7.678241 2.805207 27.667671 30.344017 -5.018342 1.782890 41.578626 -0.013181 -5.830439 4.024079 -0.224095 0.171159 -0.258594 0.000000 0.000000 0.000000 0.000000 0.000000 0.000000 0.000000 
9.703698 22.254858 1.668447 50.231253 -79.913717 -7.022921 -10.593060 -1.597378 2.585738 -18.970343 -8.771874 -84.699917 8.720872 6.909034 120.097060 1.369647 5.066085 4.012723 0.787100 -0.000000 -56.406300 12.313039 3.178115 0.985642 1.326445 -13.044955 -82.391091 -9.260772 -9.244860 118.246650 -0.374156 0.430704 -8.321820 0.002900 -0.000000 -72.526600 -1.618482 -1.871567 -3.576412 -0.635374 -1.829197 -2.852163 -3.302793 -1.921067 2.913446 5.334828 -9.473239 -4.865930 -1.785372 -0.158387 0.545977 0.000000 0.000000 0.000000 5.684372 3.462889 1.529774 -35.128079 -21.257092 -3.718438 -0.736822 -68.849395 -0.040566 6.391618 0.904210 0.032477 -0.182778 0.357810 0.000000 0.000000 0.000000 0.000000 0.000000 0.000000 0.000000 6.529213 -8.032116 2.748671 25.203234 29.088807 -4.381986 1.669281 44.204793 -0.015229 -6.082995 3.512283 -0.205696 0.177695 -0.256458 0.000000 0.000000 0.000000 0.000000 0.000000 0.000000 0.000000 
9.587098 22.272754 1.649654 51.018401 -79.675901 -6.065079 -10.209586 -2.093799 2.702995 -19.667882 -10.974201 -90.470361 9.953118 7.304904 124.264074 1.347826 5.423033 2.082090 0.763199 0.000000 -54.764801 12.089889 3.793502 1.378634 1.393658 -12.777779 -88.781039 -10.657778 -9.703698 122.713812 -0.291439 0.795098 -9.933505 -0.024600 0.000000 -72.162200 -1.675107 -1.947586 -3.849169 -0.616462 -1.904114 -2.903578 -3.129447 -2.004663 3.028420 5.212497 -9.918844 -4.842543 -1.637227 -0.148002 0.539803 0.000000 0.000000 0.000000 6.001961 3.375074 1.690868 -32.758079 -20.359275 -4.142738 -0.749692 -68.917896 -0.033396 5.223091 1.362037 0.048907 -0.170708 0.344395 0.000000 0.000000 0.000000 0.000000 0.000000 0.000000 0.000000 6.033032 -8.434552 2.680780 22.625433 27.597454 -4.077783 1.529521 47.355570 -0.018076 -6.447817 2.991718 -0.187794 0.185162 -0.256392 0.000000 0.000000 0.000000 0.000000 0.000000 0.000000 0.000000 
9.467258 22.277297 1.628786 51.987847 -79.454250 -5.235424 -9.756777 -2.525996 2.783364 -20.140785 -13.360239 -96.280206 11.126457 7.668234 127.751724 1.346196 5.850722 0.374689 0.738300 -0.000000 -53.181900 11.816447 4.367828 1.849721 1.336658 -12.368088 -95.338019 -12.002187 -10.076359 126.576061 -0.226526 1.109806 -11.341696 -0.053500 0.000000 -72.154200 -1.758676 -2.033572 -4.119528 -0.606658 -1.988172 -2.960518 -2.968602 -2.097271 3.129893 5.126820 -10.443183 -4.867689 -1.491504 -0.136953 0.518699 0.000000 0.000000 0.000000 6.370525 3.327491 1.865526 -30.221158 -19.034801 -4.684385 -0.748655 -69.395009 -0.026457 4.063466 1.716689 0.051940 -0.158455 0.332948 0.000000 0.000000 0.000000 0.000000 0.000000 0.000000 0.000000 5.590466 -8.885325 2.604264 20.006767 25.880815 -4.209963 1.372943 50.928404 -0.021597 -6.880264 2.459333 -0.167494 0.193315 -0.258235 0.000000 0.000000 0.000000 0.000000 0.000000 0.000000 0.000000 
9.343286 22.270671 1.605792 53.084834 -79.246189 -4.523672 -9.254908 -2.866889 2.800271 -20.342109 -15.847763 -102.053844 12.194216 8.011624 130.546365 1.364663 6.334319 -1.089988 0.710499 0.000000 -51.639500 11.502839 4.876206 2.370934 1.148838 -11.841374 -101.991079 -13.240654 -10.369780 129.821399 -0.184400 1.337506 -12.551434 -0.076500 -0.000000 -72.378300 -1.867472 -2.130370 -4.344421 -0.606440 -2.082456 -3.010439 -2.822748 -2.199579 3.221426 5.088825 -11.047338 -4.955654 -1.347259 -0.124842 0.478099 0.000000 0.000000 0.000000 6.772073 3.370060 2.053620 -27.595746 -17.355117 -5.360889 -0.735981 -70.179229 -0.019892 2.952965 1.929751 0.044276 -0.146415 0.324541 0.000000 0.000000 0.000000 0.000000 0.000000 0.000000 0.000000 5.209305 -9.385514 2.523385 17.429052 23.955959 -4.816590 1.209917 54.805596 -0.025544 -7.319202 1.919613 -0.142896 0.201703 -0.261593 0.000000 0.000000 0.000000 0.000000 0.000000 0.000000 0.000000 
9.214015 22.254032 1.580493 54.251872 -79.052413 -3.912518 -8.729686 -3.095634 2.735701 -20.241639 -18.331730 -107.717510 13.117135 8.349622 132.649487 1.400982 6.852184 -2.289236 0.682600 0.000000 -50.316200 11.161347 5.300004 2.911269 0.836427 -11.218205 -108.658662 -14.328018 -10.597148 132.450647 -0.169208 1.440404 -13.579275 -0.085600 -0.000000 -72.684799 -1.997390 -2.241031 -4.489029 -0.615890 -2.190735 -3.043021 -2.695157 -2.315075 3.303443 5.109080 -11.707629 -5.108077 -1.205929 -0.111639 0.417069 0.000000 0.000000 0.000000 7.191727 3.514642 2.253850 -24.949922 -15.319162 -6.174382 -0.712413 -71.214778 -0.013924 1.944363 1.994740 0.031215 -0.135440 0.319568 0.000000 0.000000 0.000000 0.000000 0.000000 0.000000 0.000000 4.903247 -9.915047 2.444666 14.951735 21.818109 -5.854093 1.048195 58.903678 -0.029692 -7.716740 1.348318 -0.111305 0.210035 -0.265393 0.000000 0.000000 0.000000 0.000000 0.000000 0.000000 0.000000 
9.078631 22.229594 1.553341 55.395397 -78.875924 -3.350078 -8.209081 -3.204353 2.584596 -19.827612 -20.701526 -113.205042 13.869348 8.696237 134.086403 1.450048 7.373063 -3.232685 0.658000 -0.000001 -49.129100 10.803900 5.627263 3.437545 0.417631 -10.521900 -115.247621 -15.229528 -10.776915 134.469836 -0.182293 1.395911 -14.434697 -0.074200 -0.000000 -72.915000 -2.137302 -2.362438 -4.529627 -0.631463 -2.310834 -3.048298 -2.581272 -2.441473 3.383375 5.182396 -12.426869 -5.334879 -1.062182 -0.096698 0.332512 0.000000 0.000000 0.000000 7.627623 3.810082 2.462644 -22.393441 -13.048998 -7.116876 -0.682278 -72.355220 -0.008433 1.039774 1.901028 0.016854 -0.125443 0.318593 0.000000 0.000000 0.000000 0.000000 0.000000 0.000000 0.000000 4.646043 -10.477875 2.375089 12.669895 19.501080 -7.268314 0.894437 63.087236 -0.033538 -7.995541 0.781925 -0.075021 0.217345 -0.269361 0.000000 0.000000 0.000000 0.000000 0.000000 0.000000 0.000000 
8.936891 22.198452 1.524233 56.541734 -78.741618 -2.880789 -7.717800 -3.195083 2.352126 -19.125212 -22.837047 -118.472797 14.434334 9.065292 134.885351 1.506889 7.871466 -3.929113 0.643200 0.000000 -48.189799 10.442177 5.853116 3.932582 -0.106031 -9.734927 -121.686788 -15.922928 -10.926618 135.890994 -0.225742 1.177290 -15.129163 -0.036900 0.000000 -72.942801 -2.292930 -2.489097 -4.464058 -0.654196 -2.437207 -3.022801 -2.477573 -2.573215 3.464478 5.303034 -13.184837 -5.631554 -0.912813 -0.079759 0.225541 0.000000 0.000000 0.000000 8.086599 4.262157 2.675220 -20.014086 -10.584224 -8.167626 -0.647850 -73.523841 -0.003389 0.246445 1.665050 0.004992 -0.116595 0.321441 0.000000 0.000000 0.000000 0.000000 0.000000 0.000000 0.000000 4.417387 -11.055983 2.323000 10.650614 17.026534 -8.958337 0.750896 67.260119 -0.036695 -8.110659 0.234425 -0.036545 0.222976 -0.273019 0.000000 0.000000 0.000000 0.000000 0.000000 0.000000 0.000000 
8.787697 22.161864 1.495901 57.249084 -78.601753 -2.100138 -7.275185 -3.081857 2.074766 -18.119052 -24.717778 -123.450222 14.802532 9.452330 135.087541 1.567595 8.324448 -4.403012 0.643300 -0.000000 -47.565200 10.087119 5.983735 4.341736 -0.636556 -8.966439 -127.837935 -16.399646 -11.078031 136.735506 -0.295660 0.807154 -15.688653 0.025200 0.000000 -72.735600 -2.375019 -2.632340 -4.291929 -0.658397 -2.586242 -2.964442 -2.378311 -2.726810 3.550311 5.437750 -13.965200 -5.989332 -0.755151 -0.060677 0.098722 0.000000 0.000000 0.000000 8.534482 4.870307 2.887438 -17.900188 -7.993383 -9.289735 -0.611661 -74.658946 0.001377 -0.452940 1.308697 -0.002268 -0.108528 0.327903 0.000000 0.000000 0.000000 0.000000 0.000000 0.000000 0.000000 4.167322 -11.648065 2.292193 8.932336 14.431635 -10.813657 0.617324 71.322548 -0.038773 -8.031179 -0.262538 -0.000579 0.226216 -0.276142 0.000000 0.000000 0.000000 0.000000 0.000000 0.000000 0.000000 
8.629669 22.119642 1.465123 57.994099 -78.545231 -1.493745 -6.897848 -2.885202 1.758174 -16.957711 -26.168063 -128.081609 14.981906 9.873047 134.754440 1.622199 8.684247 -4.730225 0.652200 -0.000000 -47.213400 9.751023 6.021503 4.690051 -1.247254 -8.113219 -133.636606 -16.660855 -11.235527 137.028943 -0.391153 0.289142 -16.129551 0.109800 0.000000 -72.273600 -2.491877 -2.768612 -4.038930 -0.673397 -2.727957 -2.877102 -2.284800 -2.871952 3.644593 5.606158 -14.754010 -6.389976 -0.589769 -0.039761 -0.042122 0.000000 0.000000 0.000000 9.026454 5.605300 3.089655 -16.101379 -5.290009 -10.429830 -0.574266 -75.728836 0.005998 -1.084971 0.862488 -0.003932 -0.100744 0.336896 0.000000 0.000000 0.000000 0.000000 0.000000 0.000000 0.000000 3.923057 -12.238555 2.288726 7.554946 11.763015 -12.705443 0.491912 75.208071 -0.039519 -7.749819 -0.677687 0.028183 0.226521 -0.278878 0.000000 0.000000 0.000000 0.000000 0.000000 0.000000 0.000000 
8.464063 22.072369 1.433622 58.680399 -78.553380 -0.944728 -6.591323 -2.623098 1.448094 -15.683695 -27.231775 -132.353589 14.975957 10.321563 133.924907 1.670227 8.950700 -4.955948 0.668800 -0.000000 -47.056699 9.444654 5.974629 4.972565 -1.910858 -7.226760 -139.034334 -16.711542 -11.418030 136.783415 -0.506356 -0.331223 -16.463637 0.208599 0.000000 -71.645000 -2.616468 -2.901064 -3.752989 -0.688529 -2.866343 -2.772085 -2.187177 -3.012852 3.751895 5.769180 -15.555981 -6.816088 -0.410687 -0.016837 -0.191123 0.000000 0.000000 0.000000 9.562047 6.445137 3.275633 -14.685152 -2.548932 -11.546437 -0.537235 -76.700211 0.010686 -1.690786 0.358936 0.000299 -0.092385 0.347936 -0.000000 0.000000 0.000000 0.000000 0.000000 0.000000 0.000000 3.620297 -12.841817 2.310495 6.538898 9.109112 -14.533391 0.373457 78.821540 -0.038837 -7.282471 -0.969252 0.045441 0.223668 -0.281976 0.000000 0.000000 0.000000 0.000000 0.000000 0.000000 0.000000 
